<svg width="130" height="130" viewBox="0 0 130 130" fill="none" xmlns="http://www.w3.org/2000/svg">
<path d="M62.4 5.19995C43.7632 5.19995 28.6 26.76 28.6 53.2644C28.6 66.9565 32.6689 79.286 39.1574 88.0343C38.9129 89.3476 38.9606 90.6986 39.2969 91.9914C39.6333 93.2841 40.2502 94.487 41.1037 95.5146C41.9573 96.5421 43.0266 97.3692 44.2357 97.937C45.4449 98.5048 46.7642 98.7994 48.1 98.7999C50.5135 98.7999 52.8281 97.8412 54.5347 96.1346C56.2413 94.428 57.2 92.1134 57.2 89.6999C57.2 87.2865 56.2413 84.9719 54.5347 83.2653C52.8281 81.5587 50.5135 80.5999 48.1 80.5999C47.6047 80.6037 47.1105 80.6478 46.6223 80.732C41.9733 73.8068 39 63.9898 39 53.2644C39 32.8466 49.7172 15.6 62.4 15.6C73.1094 15.6 82.3918 27.9175 85.0282 44.0374C88.7254 45.0982 92.4084 46.5333 96.0172 48.2675C94.2544 24.1031 79.8512 5.19995 62.4 5.19995ZM58.5 44.1999C56.0866 44.1999 53.7719 45.1587 52.0654 46.8653C50.3588 48.5719 49.4 50.8865 49.4 53.2999C49.4 55.7134 50.3588 58.028 52.0654 59.7346C53.7719 61.4412 56.0866 62.3999 58.5 62.3999C60.2011 62.399 61.8679 61.9213 63.3112 61.021C64.7546 60.1208 65.9167 58.8339 66.6657 57.3066C75.115 56.7774 84.8799 59.3843 93.8946 64.7867C111.731 75.4805 121.43 94.1799 115.07 105.62C112.98 109.379 109.214 112.083 104.178 113.43C96.9264 115.37 88.034 114.383 79.2746 110.86C76.4952 113.445 73.4393 115.871 70.1035 118.102C78.7563 122.472 87.9073 124.79 96.3625 124.79C100.029 124.79 103.567 124.359 106.869 123.475C114.687 121.382 120.668 116.954 124.16 110.673C133.479 93.9052 122.533 69.8315 99.2418 55.8695C88.1594 49.2228 75.8824 46.1599 65.0914 47.0437C64.243 46.1475 63.2211 45.4333 62.088 44.9444C60.9549 44.4555 59.7341 44.2022 58.5 44.1999ZM23.8164 60.6429C5.40584 74.8675 -2.49065 95.6784 5.84495 110.673C9.33675 116.954 15.3178 121.382 23.136 123.475C26.4406 124.359 29.9714 124.79 33.6426 124.79C43.5226 124.79 54.3661 121.653 64.2383 115.735C75.2827 109.114 83.449 100.214 88.0801 90.9035C92.633 90.4075 96.2 86.5826 96.2 81.8999C96.2 76.8819 92.118 72.7999 87.1 72.7999C82.082 72.7999 78 76.8819 78 81.8999C78 83.3045 78.3434 84.6212 78.9141 85.8101C75.1599 93.5445 68.155 101.258 58.891 106.813C47.7214 113.511 35.3591 115.986 25.8223 113.43C20.7887 112.083 17.0252 109.379 14.9348 105.62C9.9064 96.5719 14.9404 83.001 26.0762 72.4242C25.0076 68.6802 24.2428 64.7379 23.8164 60.6429Z" fill="black"/>
</svg>
